<svg width="100" height="89" viewBox="0 0 100 89" fill="none" xmlns="http://www.w3.org/2000/svg">
<g clip-path="url(#clip0_6977_733)">
<path d="M73.8251 26.96L49.793 16.2756V0L73.8251 10.6822V26.96ZM54.6461 5.55395C54.1453 5.55451 53.6568 5.67733 53.2411 5.90743C52.8253 6.13752 52.5019 6.46377 52.3107 6.84559C52.12 7.22742 52.07 7.64759 52.1678 8.05276C52.2662 8.45792 52.5069 8.82974 52.8609 9.12208C53.2149 9.41387 53.6657 9.61284 54.1564 9.69287C54.6472 9.77346 55.1557 9.73178 55.6176 9.57338C56.0794 9.41498 56.4746 9.14709 56.7525 8.80362C57.0304 8.46015 57.1782 8.05609 57.1777 7.64259C57.1777 7.36803 57.1121 7.09625 56.9848 6.84281C56.8575 6.58938 56.6708 6.35873 56.4357 6.16476C56.2006 5.97079 55.9216 5.81684 55.6143 5.71235C55.3075 5.60731 54.9779 5.55339 54.6461 5.55395Z" fill="#5F9D4F"/>
<path d="M42.2515 19.5614L25.6074 10.6822L49.6395 0V16.2756L42.2515 19.5592V19.5614ZM44.6664 5.40278C44.1589 5.40278 43.6632 5.52561 43.2413 5.7557C42.8195 5.98579 42.4905 6.3126 42.2965 6.69498C42.1025 7.07735 42.0514 7.49808 42.1509 7.90381C42.2498 8.30953 42.4938 8.68246 42.8528 8.97536C43.2113 9.26826 43.6682 9.46723 44.1662 9.54781C44.6636 9.6284 45.1788 9.58728 45.6479 9.42888C46.1164 9.27048 46.5171 9.00259 46.7984 8.658C47.0801 8.31397 47.2308 7.90936 47.2308 7.4953C47.2308 6.94008 46.9606 6.40819 46.4799 6.01581C45.9986 5.62287 45.3466 5.40278 44.6664 5.40278Z" fill="#74BA60"/>
<path d="M57.5156 19.8379L72.9414 26.6946L82.059 30.5195V46.7951L72.8519 42.9285L57.5156 36.1129V19.8379Z" fill="#74BA60"/>
<path d="M25.6094 26.7795L25.6277 10.8574L42.2668 19.805L42.244 34.1581L25.6094 26.7795Z" fill="#5F9D4F"/>
<path d="M25.6074 26.959L49.6395 37.6412V53.9167L25.6074 43.2346V26.959Z" fill="#74BA60"/>
<path d="M73.8251 26.959L49.793 37.6412V53.9167L73.8251 43.2346V26.959Z" fill="#5F9D4F"/>
<path d="M16.3882 85.3583C16.3882 86.0864 16.3943 86.6806 16.4065 87.1419C16.4187 87.6032 16.4371 87.9666 16.4615 88.2334C16.486 88.5247 16.511 88.7431 16.5377 88.8881C15.3111 88.9715 14.0922 88.6375 13.0807 87.9422C12.6544 87.5465 12.3248 87.0585 12.1186 86.5155C11.9124 85.9725 11.8346 85.39 11.8913 84.812L11.928 79.7166C11.3578 80.0117 10.7564 80.2435 10.135 80.4085C9.50312 80.5781 8.85118 80.6636 8.19592 80.6636C7.03099 80.6803 5.87607 80.4441 4.81175 79.9722C3.82634 79.531 2.94709 78.8862 2.23235 78.0798C1.50983 77.2789 0.950714 76.3452 0.585564 75.332C0.188734 74.2399 -0.00912526 73.0866 0.000323064 71.9256C-0.00912526 70.7596 0.208186 69.603 0.640031 68.5192C1.04186 67.5032 1.63155 66.5712 2.37797 65.7709C3.12049 64.98 4.00864 64.338 4.99404 63.8784C5.99612 63.4149 7.0899 63.1781 8.19536 63.1876C9.35472 63.1698 10.5035 63.406 11.5612 63.8784C12.5394 64.323 13.4119 64.9677 14.1222 65.7709C14.8448 66.5723 15.4039 67.506 15.769 68.5192C16.1659 69.6113 16.3637 70.7646 16.3543 71.9256L16.3882 85.3583ZM8.19369 77.5335C8.57496 77.5207 8.95178 77.4462 9.30915 77.3134C9.77712 77.1411 10.1973 76.8599 10.5352 76.4941C10.9821 75.9995 11.3189 75.4165 11.5245 74.7835C11.8202 73.8608 11.9563 72.8949 11.9269 71.9267C11.9575 70.9647 11.8213 70.0043 11.5245 69.0883C11.3161 68.462 10.9793 67.8851 10.5352 67.3954C10.1973 67.0297 9.77712 66.749 9.30915 66.5762C8.95178 66.4439 8.57496 66.3705 8.19369 66.3583C7.80687 66.3711 7.42393 66.445 7.05989 66.5762C6.5847 66.7451 6.15785 67.0258 5.81549 67.3954C5.37142 67.8851 5.03462 68.462 4.8262 69.0883C4.52941 70.0043 4.39324 70.9647 4.42381 71.9267C4.39435 72.8949 4.53052 73.8608 4.8262 74.7835C5.03184 75.4165 5.36864 75.9995 5.81549 76.4941C6.1573 76.8632 6.58414 77.1444 7.05878 77.3134C7.42338 77.4457 7.80631 77.5201 8.19369 77.5335ZM33.0717 76.7326C33.4163 76.9549 33.7042 77.2545 33.9132 77.6063L34.0226 77.7152L33.9132 77.8241C33.1078 78.6978 32.1302 79.3981 31.0414 79.88C29.9076 80.3824 28.6788 80.637 27.4377 80.6264C26.3462 80.6331 25.2663 80.4035 24.2731 79.9533C23.286 79.5048 22.3973 78.8685 21.657 78.0787C20.91 77.2789 20.3209 76.3469 19.9191 75.3309C19.4867 74.2471 19.2694 73.0905 19.2794 71.9245C19.2699 70.7651 19.4617 69.6124 19.8463 68.5181C20.2053 67.4949 20.7583 66.5501 21.4747 65.7336C22.1978 64.9461 23.0759 64.3141 24.0541 63.8773C25.1184 63.406 26.2728 63.1698 27.4377 63.1865C28.1975 63.1965 28.9533 63.3009 29.6881 63.496C30.4973 63.7 31.2682 64.0324 31.9707 64.4798C32.6804 64.9311 33.2807 65.5346 33.727 66.2449C34.2072 67.0342 34.4484 67.944 34.4217 68.8655C34.4623 69.738 34.1899 70.5967 33.653 71.2881C33.1545 71.8962 32.532 72.3925 31.8267 72.7437C31.117 73.0961 30.3589 73.3417 29.5764 73.4718C28.8944 73.5946 28.203 73.6613 27.5094 73.6713C26.7202 73.6797 25.931 73.6246 25.1507 73.5079C24.4798 73.399 24.0235 73.3201 23.7812 73.2712C23.8407 74.0109 24.0391 74.7334 24.3665 75.4004C24.6138 75.8878 24.9495 76.3257 25.3557 76.6926C25.672 76.9794 26.046 77.1961 26.4529 77.3289C26.773 77.4306 27.1059 77.4862 27.4422 77.4929C27.9335 77.4951 28.4242 77.4462 28.9055 77.3473C29.3263 77.2617 29.7414 77.1522 30.1499 77.0194C30.5156 76.8982 30.863 76.777 31.1926 76.6553C31.5022 76.5375 31.8306 76.4764 32.1619 76.4736C32.4837 76.4719 32.7999 76.5614 33.0717 76.7326ZM27.441 66.2861C27.1181 66.3211 26.7997 66.3883 26.4901 66.4856C26.0938 66.6118 25.7265 66.8163 25.4113 67.0858C25.0123 67.4338 24.6838 67.8534 24.442 68.3236C24.1169 68.9616 23.9063 69.6513 23.8201 70.3616C24.3659 70.5156 24.9222 70.6317 25.4852 70.7073C26.1994 70.8163 26.9253 70.8346 27.6439 70.7618C28.3175 70.704 28.9683 70.4928 29.5464 70.1432C29.8281 69.9559 30.0577 69.7008 30.2144 69.4018C30.3711 69.1028 30.4495 68.7693 30.4428 68.4325C30.4662 68.1329 30.4134 67.8323 30.2883 67.5588C30.1633 67.2854 29.971 67.0475 29.7292 66.868C29.0673 66.3922 28.248 66.1849 27.4383 66.2872L27.441 66.2861ZM50.8184 76.7326C51.163 76.9549 51.4509 77.2545 51.6599 77.6063L51.7694 77.7152L51.6599 77.8241C50.8546 78.6978 49.8769 79.3981 48.7882 79.88C47.6544 80.3824 46.4255 80.637 45.1845 80.6264C44.0935 80.6331 43.013 80.4035 42.0198 79.9533C41.0327 79.5048 40.144 78.8685 39.4037 78.0787C38.6573 77.2789 38.0676 76.3469 37.6658 75.3309C37.2334 74.2471 37.0161 73.0905 37.0261 71.9245C37.0167 70.7651 37.2084 69.6124 37.593 68.5181C37.952 67.4949 38.505 66.5501 39.2214 65.7336C39.9445 64.9461 40.8227 64.3141 41.8008 63.8773C42.8652 63.406 44.0195 63.1698 45.1845 63.1865C45.9448 63.1965 46.7001 63.3009 47.4348 63.496C48.2435 63.7 49.0144 64.0324 49.7174 64.4798C50.4272 64.9311 51.0274 65.5346 51.4737 66.2449C51.9545 67.0342 52.1957 67.944 52.1695 68.8655C52.2101 69.738 51.9378 70.5967 51.4009 71.2881C50.9024 71.8962 50.2799 72.3925 49.5746 72.7437C48.8649 73.0961 48.1068 73.3417 47.3242 73.4718C46.6423 73.5946 45.9509 73.6613 45.2578 73.6713C44.4686 73.6797 43.6794 73.6246 42.8985 73.5079C42.2277 73.399 41.7714 73.3201 41.5291 73.2712C41.5885 74.0109 41.7875 74.7334 42.1143 75.4004C42.3622 75.8878 42.6973 76.3257 43.1036 76.6926C43.4198 76.9794 43.7939 77.1961 44.2007 77.3289C44.5209 77.4306 44.8543 77.4862 45.19 77.4929C45.6813 77.4951 46.1715 77.4462 46.6528 77.3473C47.0736 77.2617 47.4887 77.1522 47.8967 77.0194C48.2624 76.8982 48.6103 76.777 48.9393 76.6553C49.2495 76.5375 49.5774 76.4764 49.9092 76.4736C50.2299 76.4708 50.5444 76.5603 50.8157 76.7309H50.8184V76.7326ZM45.1872 66.2861C44.8643 66.3211 44.5459 66.3883 44.2363 66.4856C43.8395 66.6118 43.4726 66.8163 43.157 67.0858C42.7585 67.4338 42.4294 67.8534 42.1877 68.3236C41.8625 68.9616 41.6519 69.6513 41.5657 70.3616C42.1115 70.5156 42.6679 70.6317 43.2309 70.7073C43.9451 70.8163 44.6704 70.8346 45.3895 70.7618C46.0631 70.704 46.714 70.4928 47.292 70.1432C47.5738 69.9559 47.8033 69.7008 47.96 69.4018C48.1168 69.1028 48.1951 68.7693 48.1885 68.4325C48.2118 68.1329 48.159 67.8323 48.0345 67.5588C47.9095 67.2854 47.7172 67.0475 47.4754 66.868C46.8123 66.3917 45.9926 66.1844 45.1817 66.2872L45.1872 66.2861ZM77.8212 71.0903C77.8462 70.2599 77.7412 69.4312 77.51 68.6337C77.3482 68.0935 77.0665 67.596 76.6863 67.1781C76.3778 66.8468 75.9866 66.6017 75.5525 66.4684C75.149 66.3483 74.7299 66.2872 74.3087 66.2866C73.8935 66.2866 73.48 66.3478 73.0831 66.4684C72.6602 66.6029 72.2812 66.848 71.9855 67.1781C71.6164 67.601 71.3419 68.0974 71.1807 68.6337C70.9489 69.4312 70.8439 70.2599 70.8695 71.0903V76.7315C70.8695 77.459 70.8817 78.0537 70.9061 78.515C70.9306 78.9763 70.9556 79.3403 70.9817 79.6065C71.0062 79.8978 71.0318 80.1162 71.0579 80.2613C69.8257 80.3424 68.6013 80.0089 67.582 79.3148C67.1529 78.9279 66.82 78.4472 66.6105 77.9097C66.4004 77.3728 66.3198 76.7943 66.3748 76.2207L66.411 71.0886C66.4365 70.2588 66.3315 69.4301 66.0997 68.6326C65.938 68.0924 65.6562 67.5949 65.2761 67.177C64.9676 66.8457 64.5763 66.6006 64.1423 66.4673C63.7388 66.3472 63.3197 66.2861 62.8984 66.2855C62.4832 66.2855 62.0697 66.3466 61.6729 66.4673C61.25 66.6018 60.8709 66.8474 60.5752 67.177C60.2079 67.5977 59.9389 68.0951 59.7882 68.6326C59.5698 69.4329 59.4714 70.2599 59.4953 71.0886V76.7298C59.4953 77.4573 59.5015 78.052 59.5131 78.5133C59.5254 78.9746 59.5437 79.3387 59.5682 79.6049C59.5926 79.8961 59.6182 80.1145 59.6443 80.2596C58.4116 80.3407 57.1877 80.0073 56.1684 79.3136C55.7393 78.9268 55.4064 78.4461 55.1963 77.9086C54.9868 77.3717 54.9062 76.7932 54.9607 76.2196L54.9974 71.0875C54.9479 69.7236 55.1913 68.3647 55.7116 67.102C56.1195 66.1566 56.7542 65.3251 57.559 64.6799C58.3065 64.1013 59.1758 63.6967 60.1011 63.4966C61.0199 63.2926 61.9586 63.1887 62.9001 63.187C63.9238 63.1865 64.9431 63.3087 65.9369 63.551C66.9273 63.7884 67.8443 64.263 68.608 64.9338C69.3716 64.263 70.2887 63.7884 71.2791 63.551C72.2728 63.3087 73.2921 63.1865 74.3159 63.187C75.2629 63.1892 76.2067 63.2932 77.1315 63.4966C78.0685 63.6961 78.9494 64.1002 79.7109 64.6799C80.5251 65.3207 81.1665 66.1532 81.5772 67.102C82.0969 68.3653 82.3403 69.7236 82.2908 71.0875V76.7287C82.2908 77.4562 82.2969 78.0509 82.3092 78.5122C82.3214 78.9735 82.3397 79.3375 82.3642 79.6038C82.3881 79.895 82.4137 80.1134 82.4398 80.2585C81.2132 80.3413 79.9943 80.0078 78.9828 79.3125C78.5587 78.9224 78.2308 78.4405 78.0246 77.9042C77.8179 77.3673 77.7395 76.7904 77.794 76.2185L77.8212 71.0903ZM87.3329 70.9813C88.0221 70.5556 88.7757 70.2427 89.5649 70.0532C90.4147 69.8442 91.2867 69.7408 92.1627 69.7436C93.3915 69.7375 94.6131 69.9214 95.7847 70.2894C95.7275 69.6024 95.5668 68.9277 95.309 68.288C95.0416 67.5922 94.5364 67.0125 93.8823 66.6501C93.6322 66.5267 93.3682 66.4345 93.0953 66.3767C92.7762 66.3122 92.4511 66.2816 92.1254 66.2861H91.723C91.3773 66.3105 91.035 66.3655 90.6987 66.4495C90.3575 66.5339 90.0157 66.6373 89.6744 66.759C89.3332 66.8808 88.9914 66.9841 88.6501 67.0686C88.3266 67.1514 87.9943 67.1937 87.6608 67.1959C87.319 67.1959 86.9811 67.1214 86.6715 66.9775C86.3447 66.7718 86.0796 66.4828 85.9029 66.1405L85.8267 65.9948L85.9029 65.8859C86.6382 65.1067 87.513 64.4714 88.4823 64.0112C89.4971 63.531 90.5976 63.2526 91.7197 63.192C91.8225 63.1698 91.9265 63.1581 92.0309 63.1559H92.3422C93.3971 63.1425 94.4436 63.3465 95.4157 63.7561C96.3233 64.143 97.1436 64.706 97.83 65.4124C99.2711 67.0508 100.041 69.1684 99.9887 71.3448V71.636C100.089 73.8492 99.4023 76.0273 98.0495 77.7869C97.4204 78.56 96.6445 79.2025 95.7664 79.6794C94.8427 80.174 93.8295 80.483 92.7851 80.5875C92.6395 80.612 92.4934 80.6242 92.3461 80.6242H91.8703C91.3312 80.622 90.7932 80.5797 90.2608 80.4969C89.6916 80.4096 89.1375 80.2446 88.614 80.0056C88.0643 79.7933 87.5474 79.5054 87.0778 79.1502C86.5982 78.7801 86.1997 78.3166 85.9068 77.788C85.4227 77.0127 85.1687 76.1162 85.1748 75.2036V74.9857C85.1442 74.1582 85.3471 73.339 85.76 72.6198C86.1352 71.9517 86.6737 71.3887 87.3251 70.9824L87.3329 70.9813ZM94.906 72.7282C94.5887 72.6781 94.2291 72.6292 93.8267 72.5831C93.4198 72.5331 93.0102 72.5081 92.6012 72.5075C92.2705 72.507 91.9403 72.5253 91.6119 72.562C91.3129 72.5942 91.0177 72.6615 90.7337 72.7615C90.1869 72.9138 89.7011 73.2311 89.3437 73.6702C89.2209 73.8175 89.122 73.9837 89.0508 74.1615C88.9752 74.3544 88.9258 74.5561 88.9047 74.7618C88.8763 74.8685 88.8641 74.9791 88.8685 75.0897C88.8713 75.3542 88.908 75.6171 88.978 75.8722C89.0586 76.1651 89.2092 76.4336 89.4171 76.6553C89.6511 76.926 89.9451 77.1383 90.2774 77.2739C90.7615 77.4634 91.2795 77.5501 91.7992 77.529C91.9465 77.5335 92.0937 77.5212 92.2382 77.4929C92.8807 77.4818 93.5054 77.2789 94.0312 76.9104C94.2674 76.7709 94.4775 76.592 94.6531 76.3808C94.8243 76.174 94.9716 75.9478 95.0922 75.7077C95.3523 75.2675 95.5374 74.7885 95.6408 74.2882C95.7336 73.8453 95.7825 73.394 95.7869 72.9416C95.7669 72.9432 95.7475 72.9366 95.7319 72.9232C95.7169 72.9105 95.6969 72.9038 95.6774 72.9055C95.5802 72.8816 95.4701 72.856 95.3479 72.8299C95.2261 72.8037 95.0772 72.7704 94.9021 72.7304L94.906 72.7282Z" fill="white"/>
</g>
<defs>
<clipPath id="clip0_6977_733">
<rect width="100" height="88.901" fill="white"/>
</clipPath>
</defs>
</svg>
